HIERARCHY
ROOT Hips
{
	OFFSET 0.000000 71.427986 0.000000
	CHANNELS 6 Xposition Yposition Zposition Xrotation Yrotation Zrotation
	JOINT Pelvis
	{
		OFFSET 0.000000 0.000000 0.000000
		CHANNELS 3 Xrotation Yrotation Zrotation
		JOINT LeftUpLeg
		{
			OFFSET 6.797100 -2.508499 -1.318700
			CHANNELS 3 Xrotation Yrotation Zrotation
			JOINT LeftLeg
			{
				OFFSET 0.069008 -29.241863 0.690200
				CHANNELS 3 Xrotation Yrotation Zrotation
				JOINT LeftFoot
				{
					OFFSET -0.069008 -29.568123 -0.266800
					CHANNELS 3 Xrotation Yrotation Zrotation
					JOINT LeftToeBase
					{
						OFFSET 3.145500 -8.631000 16.059900
						CHANNELS 3 Xrotation Yrotation Zrotation
						End Site
						{
							OFFSET 0.000000 18.501587 0.000000
						}
					}
				}
			}
			JOINT Left_ShortSleeve
			{
				OFFSET 0.265923 -10.480953 1.153800
				CHANNELS 3 Xrotation Yrotation Zrotation
				End Site
				{
					OFFSET 1.725763 19.823879 0.000000
				}
			}
		}
		JOINT RightUpLeg
		{
			OFFSET -6.797100 -2.508499 -1.318700
			CHANNELS 3 Xrotation Yrotation Zrotation
			JOINT RightLeg
			{
				OFFSET -0.082453 -29.241932 0.688000
				CHANNELS 3 Xrotation Yrotation Zrotation
				JOINT RightFoot
				{
					OFFSET 0.082453 -29.568058 -0.264600
					CHANNELS 3 Xrotation Yrotation Zrotation
					JOINT RightToeBase
					{
						OFFSET -3.115300 -8.682800 16.113400
						CHANNELS 3 Xrotation Yrotation Zrotation
						End Site
						{
							OFFSET 0.000000 18.567114 0.000000
						}
					}
				}
			}
			JOINT Right_ShortSleeve
			{
				OFFSET -0.265923 -10.480953 1.153800
				CHANNELS 3 Xrotation Yrotation Zrotation
				End Site
				{
					OFFSET -1.725766 19.823910 0.000000
				}
			}
		}
	}
	JOINT Spine
	{
		OFFSET 0.000000 13.368103 0.470500
		CHANNELS 3 Xrotation Yrotation Zrotation
		JOINT Spine1
		{
			OFFSET 0.147000 13.837402 0.538800
			CHANNELS 3 Xrotation Yrotation Zrotation
			JOINT Spine2
			{
				OFFSET 0.168000 16.242897 -1.435500
				CHANNELS 3 Xrotation Yrotation Zrotation
				JOINT Neck
				{
					OFFSET 0.217200 18.631500 -1.679100
					CHANNELS 3 Xrotation Yrotation Zrotation
					JOINT Head
					{
						OFFSET 0.000000 6.599396 1.385900
						CHANNELS 3 Xrotation Yrotation Zrotation
						JOINT Hat
						{
							OFFSET -0.532200 27.220596 -10.096100
							CHANNELS 3 Xrotation Yrotation Zrotation
							End Site
							{
								OFFSET 0.000000 22.029861 0.000000
							}
						}
						JOINT HairD
						{
							OFFSET -10.777400 17.437393 -1.325900
							CHANNELS 3 Xrotation Yrotation Zrotation
							JOINT HairD1
							{
								OFFSET -3.290299 -11.051193 1.062200
								CHANNELS 3 Xrotation Yrotation Zrotation
								End Site
								{
									OFFSET 0.000000 11.579437 0.000000
								}
							}
						}
						JOINT HairB
						{
							OFFSET -10.777400 17.437393 1.467900
							CHANNELS 3 Xrotation Yrotation Zrotation
							JOINT HairB1
							{
								OFFSET -1.561200 -12.956299 3.590200
								CHANNELS 3 Xrotation Yrotation Zrotation
								End Site
								{
									OFFSET 0.000000 13.534866 0.000000
								}
							}
						}
						JOINT HairA
						{
							OFFSET 9.713100 17.437393 1.467900
							CHANNELS 3 Xrotation Yrotation Zrotation
							JOINT HairA1
							{
								OFFSET 1.561200 -12.956299 3.590200
								CHANNELS 3 Xrotation Yrotation Zrotation
								End Site
								{
									OFFSET 0.000000 13.534866 0.000000
								}
							}
						}
						JOINT HairC
						{
							OFFSET 9.713100 17.437393 -1.325900
							CHANNELS 3 Xrotation Yrotation Zrotation
							JOINT HairC1
							{
								OFFSET 3.290300 -11.051193 1.062200
								CHANNELS 3 Xrotation Yrotation Zrotation
								End Site
								{
									OFFSET 0.000000 11.579437 0.000000
								}
							}
						}
					}
				}
				JOINT LeftShoulder
				{
					OFFSET 5.101800 15.108002 -2.763700
					CHANNELS 3 Xrotation Yrotation Zrotation
					JOINT LeftArm
					{
						OFFSET 9.825497 2.506317 -1.597400
						CHANNELS 3 Xrotation Yrotation Zrotation
						JOINT LeftForeArm
						{
							OFFSET 21.966244 0.000000 0.000000
							CHANNELS 3 Xrotation Yrotation Zrotation
							JOINT LeftHand
							{
								OFFSET 33.879036 0.000000 0.000000
								CHANNELS 3 Xrotation Yrotation Zrotation
								JOINT LeftHandThumb1
								{
									OFFSET 6.715286 -2.359680 3.363841
									CHANNELS 3 Xrotation Yrotation Zrotation
									JOINT LeftHandThumb2
									{
										OFFSET 2.507072 -1.447464 1.447461
										CHANNELS 3 Xrotation Yrotation Zrotation
										JOINT LeftHandThumb3
										{
											OFFSET 2.898338 -1.673355 1.673357
											CHANNELS 3 Xrotation Yrotation Zrotation
											End Site
											{
												OFFSET -0.295959 3.727692 -0.131651
											}
										}
									}
								}
								JOINT LeftHandIndex1
								{
									OFFSET 14.190811 -0.254547 3.840278
									CHANNELS 3 Xrotation Yrotation Zrotation
									JOINT LeftHandIndex2
									{
										OFFSET 3.551727 0.000000 -0.000000
										CHANNELS 3 Xrotation Yrotation Zrotation
										JOINT LeftHandIndex3
										{
											OFFSET 2.894196 0.000000 0.000000
											CHANNELS 3 Xrotation Yrotation Zrotation
											End Site
											{
												OFFSET -1.000603 2.690872 0.366626
											}
										}
									}
								}
								JOINT LeftHandMiddle1
								{
									OFFSET 13.776489 0.000000 0.000000
									CHANNELS 3 Xrotation Yrotation Zrotation
									JOINT LeftHandMiddle2
									{
										OFFSET 3.438232 0.000000 0.000000
										CHANNELS 3 Xrotation Yrotation Zrotation
										JOINT LeftHandMiddle3
										{
											OFFSET 3.691551 0.000000 0.000000
											CHANNELS 3 Xrotation Yrotation Zrotation
											End Site
											{
												OFFSET -1.082298 3.499527 0.457670
											}
										}
									}
								}
								JOINT LeftHandRing1
								{
									OFFSET 13.966164 -0.268127 -3.067488
									CHANNELS 3 Xrotation Yrotation Zrotation
									JOINT LeftHandRing2
									{
										OFFSET 3.162567 0.000000 0.000000
										CHANNELS 3 Xrotation Yrotation Zrotation
										JOINT LeftHandRing3
										{
											OFFSET 3.324348 0.000000 0.000000
											CHANNELS 3 Xrotation Yrotation Zrotation
											End Site
											{
												OFFSET -0.861900 3.184998 0.405154
											}
										}
									}
								}
								JOINT LeftHandPinky1
								{
									OFFSET 13.131393 -0.168503 -5.746925
									CHANNELS 3 Xrotation Yrotation Zrotation
									JOINT LeftHandPinky2
									{
										OFFSET 2.849182 0.000000 0.000000
										CHANNELS 3 Xrotation Yrotation Zrotation
										JOINT LeftHandPinky3
										{
											OFFSET 2.805038 0.000000 0.000000
											CHANNELS 3 Xrotation Yrotation Zrotation
											End Site
											{
												OFFSET -0.882500 2.642609 0.325652
											}
										}
									}
								}
							}
							JOINT Left_Sleeve
							{
								OFFSET 6.592125 -0.646545 0.805568
								CHANNELS 3 Xrotation Yrotation Zrotation
								End Site
								{
									OFFSET -0.000179 20.275787 -0.000000
								}
							}
						}
					}
				}
				JOINT RightShoulder
				{
					OFFSET -5.731700 15.108002 -2.763700
					CHANNELS 3 Xrotation Yrotation Zrotation
					JOINT RightArm
					{
						OFFSET -9.825497 2.506317 -1.597400
						CHANNELS 3 Xrotation Yrotation Zrotation
						JOINT RightForeArm
						{
							OFFSET -21.966242 0.000000 0.000000
							CHANNELS 3 Xrotation Yrotation Zrotation
							JOINT RightHand
							{
								OFFSET -33.879032 0.000000 0.000000
								CHANNELS 3 Xrotation Yrotation Zrotation
								JOINT RightHandThumb1
								{
									OFFSET -6.715286 -2.359680 3.363841
									CHANNELS 3 Xrotation Yrotation Zrotation
									JOINT RightHandThumb2
									{
										OFFSET -2.507072 -1.447464 1.447461
										CHANNELS 3 Xrotation Yrotation Zrotation
										JOINT RightHandThumb3
										{
											OFFSET -2.898338 -1.673355 1.673357
											CHANNELS 3 Xrotation Yrotation Zrotation
											End Site
											{
												OFFSET 0.295959 3.727692 -0.131651
											}
										}
									}
								}
								JOINT RightHandIndex1
								{
									OFFSET -14.190811 -0.254547 3.840278
									CHANNELS 3 Xrotation Yrotation Zrotation
									JOINT RightHandIndex2
									{
										OFFSET -3.551727 0.000000 -0.000000
										CHANNELS 3 Xrotation Yrotation Zrotation
										JOINT RightHandIndex3
										{
											OFFSET -2.894196 0.000000 0.000000
											CHANNELS 3 Xrotation Yrotation Zrotation
											End Site
											{
												OFFSET 1.000603 2.690872 0.366626
											}
										}
									}
								}
								JOINT RightHandMiddle1
								{
									OFFSET -13.776489 0.000000 0.000000
									CHANNELS 3 Xrotation Yrotation Zrotation
									JOINT RightHandMiddle2
									{
										OFFSET -3.438232 0.000000 0.000000
										CHANNELS 3 Xrotation Yrotation Zrotation
										JOINT RightHandMiddle3
										{
											OFFSET -3.691551 0.000000 0.000000
											CHANNELS 3 Xrotation Yrotation Zrotation
											End Site
											{
												OFFSET 1.082298 3.499527 0.457670
											}
										}
									}
								}
								JOINT RightHandRing1
								{
									OFFSET -13.966164 -0.268127 -3.067488
									CHANNELS 3 Xrotation Yrotation Zrotation
									JOINT RightHandRing2
									{
										OFFSET -3.162567 0.000000 0.000000
										CHANNELS 3 Xrotation Yrotation Zrotation
										JOINT RightHandRing3
										{
											OFFSET -3.324348 0.000000 0.000000
											CHANNELS 3 Xrotation Yrotation Zrotation
											End Site
											{
												OFFSET 0.861900 3.184998 0.405154
											}
										}
									}
								}
								JOINT RightHandPinky1
								{
									OFFSET -13.131393 -0.168503 -5.746925
									CHANNELS 3 Xrotation Yrotation Zrotation
									JOINT RightHandPinky2
									{
										OFFSET -2.849182 0.000000 0.000000
										CHANNELS 3 Xrotation Yrotation Zrotation
										JOINT RightHandPinky3
										{
											OFFSET -2.805038 0.000000 0.000000
											CHANNELS 3 Xrotation Yrotation Zrotation
											End Site
											{
												OFFSET 0.882500 2.642609 0.325652
											}
										}
									}
								}
							}
							JOINT Right_Sleeve
							{
								OFFSET -6.592125 -0.646545 0.805568
								CHANNELS 3 Xrotation Yrotation Zrotation
								End Site
								{
									OFFSET 0.000179 20.275787 -0.000000
								}
							}
						}
					}
				}
				JOINT Bind_Right_JacketString
				{
					OFFSET -3.534800 11.969597 7.200700
					CHANNELS 3 Xrotation Yrotation Zrotation
					JOINT Bind_Right_JacketString1
					{
						OFFSET -0.319900 -6.102600 2.794100
						CHANNELS 3 Xrotation Yrotation Zrotation
						End Site
						{
							OFFSET 0.000000 6.719452 0.000000
						}
					}
				}
				JOINT Bind_Left_JacketString
				{
					OFFSET 2.904800 11.969597 7.200700
					CHANNELS 3 Xrotation Yrotation Zrotation
					JOINT Bind_Left_JacketString1
					{
						OFFSET 0.364800 -5.904503 3.186800
						CHANNELS 3 Xrotation Yrotation Zrotation
						End Site
						{
							OFFSET 0.000000 6.719513 0.000000
						}
					}
				}
				JOINT HairE
				{
					OFFSET 5.915200 17.612701 -11.592200
					CHANNELS 3 Xrotation Yrotation Zrotation
					JOINT HairE1
					{
						OFFSET 0.289200 -7.171898 -1.284500
						CHANNELS 3 Xrotation Yrotation Zrotation
						End Site
						{
							OFFSET 0.000000 7.291756 0.000000
						}
					}
				}
				JOINT HairF
				{
					OFFSET -0.864800 17.612701 -11.592200
					CHANNELS 3 Xrotation Yrotation Zrotation
					JOINT HairF1
					{
						OFFSET 0.000000 -14.087097 -2.127501
						CHANNELS 3 Xrotation Yrotation Zrotation
						End Site
						{
							OFFSET 0.000000 14.246841 0.000000
						}
					}
				}
				JOINT HairG
				{
					OFFSET -8.087700 17.612701 -11.592200
					CHANNELS 3 Xrotation Yrotation Zrotation
					JOINT HairG1
					{
						OFFSET -0.293600 -6.081398 -0.910100
						CHANNELS 3 Xrotation Yrotation Zrotation
						End Site
						{
							OFFSET 0.000000 6.156120 0.000000
						}
					}
				}
			}
		}
	}
	JOINT Pouch
	{
		OFFSET 0.000000 4.394501 10.847300
		CHANNELS 3 Xrotation Yrotation Zrotation
		End Site
		{
			OFFSET 0.000000 21.880577 0.000000
		}
	}
	JOINT Bag
	{
		OFFSET -13.229000 4.813004 -0.593300
		CHANNELS 3 Xrotation Yrotation Zrotation
		End Site
		{
			OFFSET 0.000000 21.880577 0.000000
		}
	}
	JOINT OccupyGuyFacialAnim_Joint
	{
		OFFSET 1.000000 -70.206398 -1.655000
		CHANNELS 3 Xrotation Yrotation Zrotation
		End Site
		{
			OFFSET 0.000000 21.880577 0.000000
		}
	}
}
MOTION
Frames: 4
Frame Time: 0.033333
-4.343385 69.615067 -8.497655 -7.441039 -4.486306 1.683461 0.000001 0.000000 0.000000 -8.807205 15.307205 8.291681 17.178016 2.576180 0.714924 0.042971 4.895365 -6.694392 0.000000 0.000000 -0.000000 0.000002 0.000001 0.000001 3.816781 -11.882641 -3.235826 23.938495 -8.303775 -3.458219 -19.994511 -6.544980 6.512469 -0.000000 0.000000 0.000000 0.000000 0.000001 0.000000 5.408363 1.722241 -1.339824 2.391781 0.630632 -0.680521 2.425782 0.605427 -0.707987 2.177470 0.423597 1.123277 -3.102778 2.032596 5.140772 0.000000 -0.000000 -0.000000 0.000000 -0.000000 -0.000000 0.000000 -0.000000 0.000000 0.000000 -0.000000 -0.000000 0.000000 -0.000000 -0.000000 0.000000 -0.000000 -0.000000 0.000000 -0.000000 -0.000000 0.000000 -0.000000 -0.000000 0.000000 -0.000000 -0.000000 -8.268267 -8.337015 -14.016837 12.754318 -0.550058 -51.544719 0.000330 -86.847488 0.000346 -120.076310 -0.365319 14.122499 -12.800293 -17.469047 4.117107 1.017573 0.756843 -1.429376 0.000001 0.000001 -0.000004 -3.531143 4.255070 -63.954538 3.401533 5.315251 -65.213123 0.000000 0.000000 -0.000000 2.447762 7.301058 -69.364321 3.297599 5.266232 -64.085910 0.000001 0.000000 -0.000001 4.715425 8.075143 -77.582199 2.056656 4.457176 -49.522283 -0.000001 0.000001 0.000001 6.404716 8.362814 -80.414351 1.722725 4.149916 -45.074686 0.000001 0.000000 -0.000001 -0.000001 0.000000 0.000001 -0.115145 17.599335 11.675647 10.652442 24.783779 38.537409 -0.000009 98.183334 0.000034 -33.612611 -21.433171 23.529373 16.134087 2.725019 15.174665 9.789831 -15.029710 -29.147518 0.000000 0.000002 0.000002 -0.896089 1.499708 12.609168 1.477908 -3.404890 46.916706 -0.000002 -0.000002 0.000003 1.673835 -5.829883 53.620503 5.811893 -4.512032 104.371185 0.000002 -0.000001 0.000004 3.346291 -6.835786 61.449942 3.731187 -4.564391 78.519097 -0.000001 0.000000 0.000000 4.084529 -6.990402 70.684945 2.766795 -4.257017 66.028538 -0.000000 -0.000002 -0.000001 -0.000001 0.000002 0.000002 0.000000 0.000000 0.000000 0.000000 0.000000 0.000000 0.000000 0.000000 0.000000 0.000000 0.000000 0.000000 0.000000 0.000000 0.000000 0.000000 0.000000 0.000000 0.000000 0.000000 0.000000 0.000000 0.000000 0.000000 0.000000 0.000000 0.000000 0.000000 0.000000 0.000000 0.000001 0.000000 0.000000 0.000001 0.000000 0.000000 0.000001 0.000000 0.000000 
-4.307187 69.646507 -8.522652 -7.403990 -3.964201 1.876615 0.000000 -0.000000 -0.000000 -8.489444 15.223242 7.990475 16.606090 2.588014 0.694568 0.151690 4.747197 -6.612272 0.000000 -0.000001 -0.000000 -0.000001 -0.000001 -0.000000 3.871872 -12.204738 -3.381914 23.751322 -8.351271 -3.413172 -19.910534 -6.693225 6.511890 0.000000 0.000000 0.000000 -0.000000 -0.000001 -0.000000 5.399422 1.755285 -1.398483 2.286279 0.630633 -0.680521 2.309123 0.605427 -0.707987 2.172621 0.680541 1.156674 -2.861697 1.467189 5.101964 0.000000 -0.000000 0.000000 0.000000 -0.000000 0.000000 0.000000 -0.000000 -0.000000 0.000000 -0.000000 -0.000000 0.000000 -0.000000 -0.000000 0.000000 -0.000000 -0.000000 0.000000 -0.000000 -0.000000 0.000000 -0.000000 0.000000 0.000000 -0.000000 0.000000 -7.705524 -8.587086 -14.259230 12.448566 -0.387592 -50.924893 -0.000322 -87.014062 -0.000277 -120.411918 -0.768925 13.978301 -12.800291 -17.469046 4.117115 1.017572 0.756873 -1.429384 0.000001 0.000001 -0.000002 -3.531134 4.255083 -63.954545 3.401556 5.315250 -65.213137 0.000000 0.000000 0.000002 2.447771 7.301068 -69.364300 3.297597 5.266236 -64.085937 0.000001 0.000000 0.000002 4.715406 8.075125 -77.582220 2.056649 4.457192 -49.522280 -0.000002 -0.000000 -0.000001 6.404716 8.362817 -80.414372 1.722743 4.149922 -45.074710 -0.000000 0.000000 -0.000001 -0.000000 0.000001 -0.000000 -0.023810 17.703818 11.680933 10.388963 24.794444 38.667760 -0.000201 97.889096 0.000253 -33.424494 -21.329310 23.953335 16.391052 3.007847 15.336664 9.405836 -14.863651 -29.477618 -0.000001 0.000003 0.000002 -0.894976 1.491396 12.616865 1.505784 -3.430713 47.384369 -0.000002 -0.000001 0.000004 1.614318 -5.786846 53.686783 5.795443 -4.516199 104.162352 0.000001 -0.000000 -0.000001 3.580678 -6.958619 61.609263 3.675081 -4.552681 77.813292 -0.000001 0.000001 0.000001 4.365984 -7.083521 70.900833 2.725883 -4.238657 65.476147 0.000002 -0.000001 -0.000001 -0.000001 -0.000000 -0.000000 0.000000 -0.000000 -0.000000 0.000000 -0.000000 -0.000000 0.000000 -0.000000 -0.000000 0.000000 -0.000000 -0.000000 0.000000 -0.000000 -0.000000 0.000000 -0.000000 -0.000000 0.000000 -0.000000 -0.000000 0.000000 -0.000000 -0.000000 0.000000 -0.000000 -0.000000 0.000000 -0.000000 -0.000000 0.000000 -0.000000 -0.000000 0.000000 -0.000000 -0.000000 0.000000 -0.000000 -0.000000 
-4.269893 69.673965 -8.549400 -7.374361 -3.515646 2.045597 0.000000 0.000000 0.000000 -8.245335 15.062251 7.668977 15.970968 2.680077 0.683738 0.517702 4.441918 -6.490686 -0.000000 -0.000002 0.000000 0.000000 0.000001 0.000001 3.905798 -12.508201 -3.527788 23.598867 -8.398096 -3.366890 -19.836312 -6.784337 6.515764 -0.000000 -0.000002 0.000000 0.000000 0.000001 -0.000000 5.391041 1.784807 -1.451837 2.193483 0.630632 -0.680521 2.207750 0.605427 -0.707987 2.167535 0.953531 1.188218 -2.582233 0.912908 5.067206 0.000000 -0.000000 -0.000000 0.000000 -0.000000 -0.000000 0.000000 -0.000000 -0.000000 0.000000 -0.000000 -0.000000 0.000000 -0.000000 -0.000000 0.000000 -0.000000 -0.000000 0.000000 -0.000000 -0.000000 0.000000 -0.000000 -0.000000 0.000000 -0.000000 -0.000000 -7.144667 -8.842076 -14.498591 11.953257 -0.398026 -50.323584 0.000558 -86.913652 0.000520 -120.728033 -0.882464 13.963374 -12.800301 -17.469042 4.117107 1.017573 0.756850 -1.429374 -0.000000 0.000001 0.000002 -3.531137 4.255052 -63.954517 3.401556 5.315250 -65.213116 0.000000 0.000000 0.000002 2.447773 7.301052 -69.364307 3.297604 5.266218 -64.085910 0.000003 0.000000 -0.000001 4.715404 8.075122 -77.582213 2.056646 4.457179 -49.522276 -0.000002 0.000001 0.000000 6.404712 8.362799 -80.414358 1.722741 4.149917 -45.074689 -0.000001 -0.000000 0.000001 0.000002 0.000001 -0.000001 0.063156 17.804133 11.685614 10.274688 24.757750 38.706173 0.000233 97.715398 -0.000242 -33.474959 -21.295657 23.982802 16.681154 3.304411 15.558672 9.022891 -14.693883 -29.805463 -0.000001 -0.000001 -0.000001 -0.893852 1.483159 12.624466 1.533883 -3.456294 47.852066 0.000000 0.000000 0.000000 1.554707 -5.743959 53.753104 5.779012 -4.520302 103.953539 -0.000001 -0.000001 0.000001 3.815787 -7.080204 61.769253 3.619106 -4.540274 77.107474 -0.000002 0.000002 -0.000003 4.648138 -7.174635 71.117425 2.685148 -4.219889 64.923748 -0.000000 0.000000 -0.000001 0.000004 0.000001 0.000002 0.000000 -0.000000 0.000000 0.000000 -0.000000 0.000000 0.000000 -0.000000 0.000000 0.000000 -0.000000 0.000000 0.000000 -0.000000 0.000000 0.000000 -0.000000 0.000000 0.000000 -0.000000 0.000000 0.000000 -0.000000 0.000000 0.000000 -0.000000 0.000000 0.000000 -0.000000 0.000000 0.000000 0.000000 0.000000 0.000000 0.000000 0.000000 0.000000 0.000000 0.000000 
-4.231770 69.697227 -8.576060 -7.350899 -3.131894 2.192631 -0.000001 0.000000 -0.000000 -8.034079 14.830909 7.362522 15.441424 2.950050 0.692315 0.831928 4.085187 -6.382382 -0.000000 -0.000000 0.000000 -0.000000 -0.000001 -0.000000 3.920994 -12.795273 -3.673164 23.479786 -8.444198 -3.319716 -19.773633 -6.825408 6.528632 0.000000 0.000000 -0.000000 0.000000 0.000002 -0.000001 5.383072 1.811163 -1.499752 2.111900 0.630632 -0.680521 2.119865 0.605427 -0.707987 2.162201 1.240680 1.218131 -2.274873 0.368723 5.034196 0.000000 -0.000000 -0.000000 0.000000 -0.000000 -0.000000 0.000000 -0.000000 -0.000000 0.000000 -0.000000 -0.000000 -0.000000 -0.000000 -0.000000 0.000000 -0.000000 -0.000000 -0.000000 -0.000000 -0.000000 0.000000 -0.000000 -0.000000 0.000000 -0.000000 -0.000000 -6.584043 -9.102631 -14.735973 11.449919 -0.415041 -49.715499 0.000098 -86.828350 0.000064 -121.037919 -0.978815 13.958907 -12.800284 -17.469051 4.117118 1.017569 0.756857 -1.429385 0.000001 -0.000000 -0.000003 -3.531134 4.255069 -63.954545 3.401565 5.315257 -65.213109 0.000001 0.000001 -0.000002 2.447773 7.301055 -69.364300 3.297607 5.266208 -64.085916 0.000002 0.000000 -0.000001 4.715415 8.075118 -77.582227 2.056647 4.457194 -49.522263 -0.000002 0.000001 -0.000001 6.404727 8.362810 -80.414351 1.722769 4.149919 -45.074700 -0.000000 -0.000001 0.000001 0.000002 0.000001 0.000001 0.152900 17.900013 11.675729 10.185517 24.729163 38.725629 0.000387 97.580269 -0.000398 -33.558751 -21.249915 23.944060 16.997168 3.613329 15.829484 8.641000 -14.520419 -30.131000 0.000002 0.000000 -0.000004 -0.892738 1.475020 12.632002 1.562176 -3.481665 48.319774 -0.000000 0.000001 0.000000 1.494998 -5.701221 53.819483 5.762524 -4.524359 103.744686 -0.000001 0.000001 0.000001 4.051575 -7.200548 61.929960 3.563343 -4.527156 76.401704 -0.000001 0.000001 0.000000 4.930956 -7.263707 71.334701 2.644576 -4.200714 64.371405 0.000001 0.000000 0.000001 0.000003 -0.000001 -0.000004 -0.000000 -0.000000 0.000000 0.000000 0.000000 0.000000 -0.000000 -0.000000 0.000000 -0.000000 -0.000000 0.000000 -0.000000 -0.000000 0.000000 0.000000 0.000000 0.000000 -0.000000 -0.000000 0.000000 -0.000000 -0.000000 0.000000 -0.000000 -0.000000 0.000000 0.000000 0.000000 0.000000 -0.000001 0.000000 -0.000000 -0.000001 0.000000 -0.000000 -0.000001 0.000000 -0.000000 
